<svg xmlns="http://www.w3.org/2000/svg" xmlns:svg="http://www.w3.org/2000/svg" id="Layer_1" width="200" height="64" enable-background="new 0 0 64 64" version="1.1" viewBox="0 0 200 64" xml:space="preserve"><metadata id="metadata3459"/><path style="fill:#fff;fill-opacity:1" id="path3447" d="m 33.101969,30.791291 c -1.095,1.896594 -0.444077,4.323156 1.451657,5.417655 1.331946,0.769 2.915368,0.662434 4.124713,-0.116212 l 0.0046,0.01416 12.801024,-7.692024 -14.904181,0.394802 0.0043,0.01637 c -1.385719,-0.01371 -2.740055,0.680074 -3.482055,1.965256 z"/><path style="fill:#fff;fill-opacity:1" id="path3449" d="m 54.14378,13.214151 c -4.064,-3.5519998 -9.315,-5.8199998 -15.315,-6.1589998 l 0,6.0269998 c 5,0.318 7.946,1.906 10.904,4.384 l 4.411,-4.252 z"/><path style="fill:#fff;fill-opacity:1" id="path3451" d="m 56.97478,30.233151 6.02,0 c -0.404,-6 -2.751,-10.93 -6.395,-14.97 l -4.259,4.233 c 2.566,2.94 4.254,6.737 4.634,10.737 z"/><path style="fill:#fff;fill-opacity:1" id="path3453" d="m 57.00278,33.233151 c -0.637,10 -8.922,17.931 -19.042,17.931 -10.535,0 -19.421,-8.544 -19.421,-19.078 0,-10.028 8.289,-18.233 17.289,-19.003 l 0,-6.0269998 c -13,0.779 -23.289,11.7169998 -23.289,25.0559998 0,13.843 11.42,25.052 25.263,25.052 13.432,0 24.59,-10.931 25.231,-23.931 l -6.031,0 z"/><text id="text4323" x="72.743" y="42.71" xml:space="preserve" style="font-style:normal;font-variant:normal;font-weight:600;font-stretch:normal;font-size:40px;line-height:125%;font-family:'PingFang TC';-inkscape-font-specification:'PingFang TC, Semi-Bold';text-align:start;letter-spacing:0;word-spacing:0;writing-mode:lr-tb;text-anchor:start;fill:#fff;fill-opacity:1;stroke:#1f628e;stroke-width:0;stroke-linecap:round;stroke-linejoin:round;stroke-miterlimit:4;stroke-dasharray:none;stroke-opacity:1"><tspan id="tspan4325" x="72.743" y="42.71">rltm.js</tspan></text><path id="path3355" d="M 32.64508,56.508326 C 22.830765,54.409249 15.369411,46.965623 13.128969,37.038582 c -0.519803,-2.303165 -0.503012,-7.581656 0.03192,-10.033513 0.423381,-1.940574 1.550021,-5.105699 2.055639,-5.775008 0.259028,-0.342886 0.534734,-0.157411 2.445414,1.645095 l 2.153472,2.031553 -0.589371,1.981785 c -1.926963,6.479503 -0.172774,13.352363 4.67587,18.319912 3.98396,4.081662 8.574317,6.008575 14.222222,5.970123 2.667236,-0.01816 4.942003,-0.453675 7.238953,-1.385934 l 1.177024,-0.477715 2.087092,1.938283 c 1.399707,1.299909 2.010307,2.016077 1.853944,2.17448 -0.39123,0.396338 -3.413012,1.835089 -4.896175,2.3312 -3.832222,1.28186 -9.040334,1.583513 -12.93989,0.749483 z" style="fill:#fff;stroke:none;stroke-width:1px;stroke-linecap:butt;stroke-linejoin:miter;stroke-opacity:1"/><path id="path3357" d="m 17.767852,22.915729 c -1.065535,-1.020808 -2.098456,-1.856015 -2.295379,-1.856015 -0.753952,0 2.168827,-4.321863 4.497835,-6.650871 2.274892,-2.274892 6.723501,-5.2398392 7.861858,-5.2398392 0.181341,0 1.392958,0.9660452 2.692483,2.1467682 l 2.362771,2.146767 -0.878912,0.271532 c -2.68861,0.830623 -5.106437,2.320164 -7.498676,4.61968 -1.67258,1.607751 -3.584613,4.198706 -4.206561,5.700224 -0.16771,0.404887 -0.370887,0.732021 -0.451505,0.726964 -0.08062,-0.0051 -1.018379,-0.844401 -2.083914,-1.86521 z" style="fill:#fff;stroke:none;stroke-width:1px;stroke-linecap:butt;stroke-linejoin:miter;stroke-opacity:1"/></svg>