<svg xmlns="http://www.w3.org/2000/svg" xmlns:svg="http://www.w3.org/2000/svg" xmlns:xlink="http://www.w3.org/1999/xlink" id="Layer_1" width="200" height="64" enable-background="new 0 0 64 64" version="1.1" viewBox="0 0 200 64" xml:space="preserve"><metadata id="metadata3459"/><defs id="defs3457"><linearGradient id="linearGradient3515"><stop id="stop3517" offset="0" style="stop-color:#2f92c5;stop-opacity:1"/><stop id="stop3519" offset="1" style="stop-color:#1c5a85;stop-opacity:1"/></linearGradient><linearGradient id="linearGradient4327" x1="54.791" x2="13.989" y1="10.142" y2="54.674" gradientTransform="matrix(0.86602541,0.50000001,-0.50000001,0.86602541,24.471463,-11.002234)" gradientUnits="userSpaceOnUse" xlink:href="#linearGradient3515"/><linearGradient id="linearGradient4329" x1="54.791" x2="13.989" y1="10.142" y2="54.674" gradientTransform="translate(5.8287796,0.23315118)" gradientUnits="userSpaceOnUse" xlink:href="#linearGradient3515"/><linearGradient id="linearGradient4331" x1="54.791" x2="13.989" y1="10.142" y2="54.674" gradientTransform="translate(5.8287796,0.23315118)" gradientUnits="userSpaceOnUse" xlink:href="#linearGradient3515"/><linearGradient id="linearGradient4333" x1="54.791" x2="13.989" y1="10.142" y2="54.674" gradientTransform="translate(5.8287796,0.23315118)" gradientUnits="userSpaceOnUse" xlink:href="#linearGradient3515"/></defs><path style="fill:url(#linearGradient4327);fill-opacity:1" id="path3447" d="m 33.101969,30.791291 c -1.095,1.896594 -0.444077,4.323156 1.451657,5.417655 1.331946,0.769 2.915368,0.662434 4.124713,-0.116212 l 0.0046,0.01416 12.801024,-7.692024 -14.904181,0.394802 0.0043,0.01637 c -1.385719,-0.01371 -2.740055,0.680074 -3.482055,1.965256 z"/><path style="fill:url(#linearGradient4329);fill-opacity:1" id="path3449" d="m 54.14378,13.214151 c -4.064,-3.5519998 -9.315,-5.8199998 -15.315,-6.1589998 l 0,6.0269998 c 5,0.318 7.946,1.906 10.904,4.384 l 4.411,-4.252 z"/><path style="fill:url(#linearGradient4331);fill-opacity:1" id="path3451" d="m 56.97478,30.233151 6.02,0 c -0.404,-6 -2.751,-10.93 -6.395,-14.97 l -4.259,4.233 c 2.566,2.94 4.254,6.737 4.634,10.737 z"/><path style="fill:url(#linearGradient4333);fill-opacity:1" id="path3453" d="m 57.00278,33.233151 c -0.637,10 -8.922,17.931 -19.042,17.931 -10.535,0 -19.421,-8.544 -19.421,-19.078 0,-10.028 8.289,-18.233 17.289,-19.003 l 0,-6.0269998 c -13,0.779 -23.289,11.7169998 -23.289,25.0559998 0,13.843 11.42,25.052 25.263,25.052 13.432,0 24.59,-10.931 25.231,-23.931 l -6.031,0 z"/><text id="text4323" x="72.743" y="42.71" xml:space="preserve" style="font-style:normal;font-variant:normal;font-weight:600;font-stretch:normal;font-size:40px;line-height:125%;font-family:'PingFang TC';-inkscape-font-specification:'PingFang TC, Semi-Bold';text-align:start;letter-spacing:0;word-spacing:0;writing-mode:lr-tb;text-anchor:start;fill:#1f628e;fill-opacity:1;stroke:#1f628e;stroke-width:0;stroke-linecap:round;stroke-linejoin:round;stroke-miterlimit:4;stroke-dasharray:none;stroke-opacity:1"><tspan id="tspan4325" x="72.743" y="42.71">rltm.js</tspan></text></svg>